<svg width="32" height="32" viewBox="0 0 32 32" fill="none" xmlns="http://www.w3.org/2000/svg">
<path fill-rule="evenodd" clip-rule="evenodd" d="M22.4115 8.44266C21.9803 8.44266 21.5619 8.49866 21.1635 8.60266C20.4171 6.48586 18.4003 4.96906 16.0283 4.96906C13.1219 4.96906 10.7475 7.24586 10.5915 10.1131C10.4139 10.0907 10.2339 10.0739 10.0491 10.0739C7.78753 10.0739 5.95473 11.9067 5.95473 14.1683C5.95473 16.4299 7.78753 18.2635 10.0491 18.2635H22.4115C25.1235 18.2635 27.3219 16.0651 27.3219 13.3531C27.3219 10.6411 25.1235 8.44266 22.4115 8.44266Z" fill="#D0D2D3"/>
<path fill-rule="evenodd" clip-rule="evenodd" d="M17.1401 20.1879C17.1401 20.1879 15.6561 20.9191 15.4129 21.0719C15.1689 21.2255 15.0769 21.2959 14.9569 21.4719C14.5817 22.0247 14.7249 22.7775 15.2777 23.1527C15.8305 23.5287 16.5833 23.3855 16.9585 22.8327C17.0809 22.6527 17.1017 22.5535 17.1641 22.2487C17.2257 21.9447 17.3305 20.3159 17.3305 20.3159C17.3409 20.1871 17.2561 20.1287 17.1401 20.1879Z" fill="#26A9E0"/>
<path fill-rule="evenodd" clip-rule="evenodd" d="M17.1401 24.1868C17.1401 24.1868 15.6561 24.9188 15.4129 25.0708C15.1689 25.2244 15.0769 25.2948 14.9569 25.4708C14.5817 26.0236 14.7249 26.7764 15.2777 27.1524C15.8305 27.5276 16.5833 27.3844 16.9585 26.8316C17.0809 26.6516 17.1017 26.5524 17.1641 26.2476C17.2257 25.9436 17.3305 24.3156 17.3305 24.3156C17.3409 24.186 17.2561 24.1276 17.1401 24.1868Z" fill="#26A9E0"/>
</svg>
