<svg width="32" height="32" viewBox="0 0 32 32" fill="none" xmlns="http://www.w3.org/2000/svg">
<path fill-rule="evenodd" clip-rule="evenodd" d="M6.35761 15.1602H26.0736C26.5936 15.1602 27.02 14.7842 27.02 14.325C27.02 13.8658 26.5936 13.4906 26.0736 13.4906H6.35761C5.83681 13.4906 5.41121 13.8658 5.41121 14.325C5.41121 14.7842 5.83681 15.1602 6.35761 15.1602Z" fill="#26A9E0"/>
<path fill-rule="evenodd" clip-rule="evenodd" d="M26.0733 17.2368H6.35728C5.83728 17.2368 5.41088 17.6128 5.41088 18.072C5.41088 18.5312 5.83728 18.9064 6.35728 18.9064H26.0733C26.5941 18.9064 27.0197 18.5312 27.0197 18.072C27.0197 17.6128 26.5941 17.2368 26.0733 17.2368Z" fill="#26A9E0"/>
<path fill-rule="evenodd" clip-rule="evenodd" d="M23.4706 20.9437H8.96016C8.44016 20.9437 8.01376 21.3197 8.01376 21.7789C8.01376 22.2373 8.44016 22.6133 8.96016 22.6133H23.4706C23.9914 22.6133 24.417 22.2373 24.417 21.7789C24.417 21.3197 23.9914 20.9437 23.4706 20.9437Z" fill="#26A9E0"/>
<path fill-rule="evenodd" clip-rule="evenodd" d="M8.9604 11.4922H23.4708C23.9916 11.4922 24.4172 11.1162 24.4172 10.657C24.4172 10.1978 23.9916 9.82184 23.4708 9.82184H8.9604C8.4404 9.82184 8.014 10.1978 8.014 10.657C8.014 11.1162 8.4404 11.4922 8.9604 11.4922Z" fill="#26A9E0"/>
</svg>
