<svg width="17" height="19" viewBox="0 0 17 19" fill="none" xmlns="http://www.w3.org/2000/svg">
<path fill-rule="evenodd" clip-rule="evenodd" d="M16.0672 14.3287C15.9972 14.2047 15.8592 14.1367 15.7182 14.1547C15.3412 14.2047 14.9662 14.2307 14.6062 14.2307C10.0242 14.2307 6.2962 10.5027 6.2962 5.92171C6.2962 4.01571 6.9592 2.15471 8.1612 0.678715C8.2512 0.567715 8.2642 0.413715 8.1942 0.289715C8.1252 0.165715 7.9862 0.0977149 7.8462 0.115715C3.4002 0.710715 0.0462036 4.54571 0.0462036 9.03671C0.0462036 14.0007 4.0862 18.0397 9.0492 18.0397C11.7692 18.0397 14.3142 16.8287 16.0332 14.7177C16.1232 14.6067 16.1362 14.4527 16.0672 14.3287Z" fill="#FF9933"/>
</svg>
