<svg width="32" height="32" viewBox="0 0 32 32" fill="none" xmlns="http://www.w3.org/2000/svg">
<path fill-rule="evenodd" clip-rule="evenodd" d="M21.6115 7.95047C21.1803 7.95047 20.7627 8.00647 20.3635 8.11047C19.6171 5.99367 17.6003 4.47687 15.2283 4.47687C12.3219 4.47687 9.94749 6.75367 9.79229 9.62087C9.61389 9.59847 9.43389 9.58167 9.24909 9.58167C6.98829 9.58167 5.15469 11.4153 5.15469 13.6769C5.15469 15.9377 6.98829 17.7713 9.24909 17.7713H21.6115C24.3235 17.7713 26.5219 15.5737 26.5219 12.8609C26.5219 10.1489 24.3235 7.95047 21.6115 7.95047Z" fill="#D0D2D3"/>
<path fill-rule="evenodd" clip-rule="evenodd" d="M17.7349 25.7883L16.7693 25.4099L17.5221 24.6979C17.5877 24.6355 17.5909 24.5307 17.5285 24.4651L17.2245 24.1435C17.1629 24.0779 17.0581 24.0747 16.9925 24.1379L16.3077 24.7859L16.1269 23.8603C16.1101 23.7715 16.0229 23.7123 15.9341 23.7307L15.5005 23.8147C15.4117 23.8323 15.3525 23.9187 15.3701 24.0075L15.5509 24.9339L14.6725 24.5899C14.5877 24.5563 14.4925 24.5987 14.4589 24.6827L14.2981 25.0947C14.2653 25.1779 14.3069 25.2739 14.3909 25.3067L15.3573 25.6851L14.6037 26.3987C14.5381 26.4611 14.5349 26.5659 14.5981 26.6315L14.9013 26.9523C14.9637 27.0179 15.0685 27.0211 15.1341 26.9587L15.8189 26.3099L15.9997 27.2363C16.0165 27.3251 16.1037 27.3827 16.1925 27.3659L16.6261 27.2811C16.7149 27.2643 16.7733 27.1771 16.7565 27.0883L16.5757 26.1635L17.4533 26.5059C17.5381 26.5395 17.6341 26.4979 17.6669 26.4131L17.8285 26.0019C17.8613 25.9171 17.8189 25.8211 17.7349 25.7883Z" fill="#26A9E0"/>
<path fill-rule="evenodd" clip-rule="evenodd" d="M17.7349 21.3634L16.7693 20.985L17.5221 20.2722C17.5877 20.2106 17.5909 20.1058 17.5285 20.0402L17.2245 19.7186C17.1629 19.653 17.0581 19.6498 16.9925 19.713L16.3077 20.361L16.1269 19.4346C16.1101 19.3466 16.0229 19.2874 15.9341 19.305L15.5005 19.3898C15.4117 19.4074 15.3525 19.4938 15.3701 19.5818L15.5509 20.5082L14.6725 20.1642C14.5877 20.1314 14.4925 20.1738 14.4589 20.257L14.2981 20.6698C14.2653 20.753 14.3069 20.849 14.3909 20.8818L15.3573 21.2602L14.6037 21.9738C14.5381 22.0362 14.5349 22.1402 14.5981 22.2066L14.9013 22.5274C14.9637 22.593 15.0685 22.5962 15.1341 22.5338L15.8189 21.885L15.9997 22.8114C16.0165 22.8994 16.1037 22.9578 16.1925 22.941L16.6261 22.8562C16.7149 22.8386 16.7733 22.7522 16.7565 22.6634L16.5757 21.7378L17.4533 22.081C17.5381 22.1138 17.6341 22.073 17.6669 21.9882L17.8285 21.577C17.8613 21.4922 17.8189 21.3962 17.7349 21.3634Z" fill="#26A9E0"/>
<path fill-rule="evenodd" clip-rule="evenodd" d="M22.2701 25.7883L21.3045 25.4099L22.0573 24.6979C22.1237 24.6355 22.1261 24.5307 22.0637 24.4651L21.7597 24.1435C21.6981 24.0779 21.5933 24.0747 21.5277 24.1379L20.8429 24.7859L20.6621 23.8603C20.6453 23.7715 20.5581 23.7123 20.4693 23.7307L20.0357 23.8147C19.9469 23.8323 19.8877 23.9187 19.9053 24.0075L20.0861 24.9339L19.2077 24.5899C19.1229 24.5563 19.0277 24.5987 18.9941 24.6827L18.8333 25.0947C18.8005 25.1779 18.8421 25.2739 18.9261 25.3067L19.8925 25.6851L19.1389 26.3987C19.0733 26.4611 19.0701 26.5659 19.1333 26.6315L19.4365 26.9523C19.4989 27.0179 19.6037 27.0211 19.6693 26.9587L20.3541 26.3099L20.5349 27.2363C20.5517 27.3251 20.6389 27.3827 20.7277 27.3659L21.1613 27.2811C21.2501 27.2643 21.3085 27.1771 21.2917 27.0883L21.1109 26.1635L21.9885 26.5059C22.0733 26.5395 22.1693 26.4979 22.2021 26.4131L22.3637 26.0019C22.3965 25.9171 22.3541 25.8211 22.2701 25.7883Z" fill="#26A9E0"/>
<path fill-rule="evenodd" clip-rule="evenodd" d="M22.2701 21.3634L21.3045 20.985L22.0573 20.2722C22.1237 20.2106 22.1261 20.1058 22.0637 20.0402L21.7597 19.7186C21.6981 19.653 21.5933 19.6498 21.5277 19.713L20.8429 20.361L20.6621 19.4346C20.6453 19.3466 20.5581 19.2874 20.4693 19.305L20.0357 19.3898C19.9469 19.4074 19.8877 19.4938 19.9053 19.5818L20.0861 20.5082L19.2077 20.1642C19.1229 20.1314 19.0277 20.1738 18.9941 20.257L18.8333 20.6698C18.8005 20.753 18.8421 20.849 18.9261 20.8818L19.8925 21.2602L19.1389 21.9738C19.0733 22.0362 19.0701 22.1402 19.1333 22.2066L19.4365 22.5274C19.4989 22.593 19.6037 22.5962 19.6693 22.5338L20.3541 21.885L20.5349 22.8114C20.5517 22.8994 20.6389 22.9578 20.7277 22.941L21.1613 22.8562C21.2501 22.8386 21.3085 22.7522 21.2917 22.6634L21.1109 21.7378L21.9885 22.081C22.0733 22.1138 22.1693 22.073 22.2021 21.9882L22.3637 21.577C22.3965 21.4922 22.3541 21.3962 22.2701 21.3634Z" fill="#26A9E0"/>
<path fill-rule="evenodd" clip-rule="evenodd" d="M13.0928 25.7493L12.1272 25.3709L12.88 24.6581C12.9456 24.5957 12.9488 24.4909 12.8864 24.4261L12.5824 24.1045C12.52 24.0389 12.416 24.0357 12.3504 24.0981L11.6656 24.7469L11.4848 23.8205C11.468 23.7325 11.3808 23.6733 11.292 23.6909L10.8584 23.7749C10.7696 23.7933 10.7104 23.8797 10.728 23.9677L10.9088 24.8941L10.0304 24.5501C9.94558 24.5173 9.84958 24.5597 9.81678 24.6429L9.65598 25.0549C9.62238 25.1389 9.66478 25.2349 9.74878 25.2677L10.7144 25.6461L9.96158 26.3597C9.89598 26.4213 9.89278 26.5261 9.95518 26.5925L10.2592 26.9133C10.3216 26.9789 10.4264 26.9813 10.492 26.9197L11.1768 26.2701L11.3576 27.1965C11.3744 27.2853 11.4616 27.3437 11.5504 27.3269L11.984 27.2421C12.0728 27.2245 12.1312 27.1381 12.1136 27.0493L11.9336 26.1237L12.8112 26.4669C12.896 26.4997 12.992 26.4589 13.0248 26.3741L13.1864 25.9629C13.2192 25.8773 13.1768 25.7821 13.0928 25.7493Z" fill="#26A9E0"/>
<path fill-rule="evenodd" clip-rule="evenodd" d="M13.0928 21.3235L12.1272 20.9459L12.88 20.2331C12.9456 20.1707 12.9488 20.0659 12.8864 20.0003L12.5824 19.6795C12.52 19.6139 12.416 19.6107 12.3504 19.6731L11.6656 20.3211L11.4848 19.3955C11.468 19.3067 11.3808 19.2483 11.292 19.2659L10.8584 19.3499C10.7696 19.3675 10.7104 19.4539 10.728 19.5427L10.9088 20.4691L10.0304 20.1251C9.94558 20.0915 9.84958 20.1339 9.81678 20.2179L9.65598 20.6299C9.62238 20.7139 9.66478 20.8091 9.74878 20.8427L10.7144 21.2211L9.96158 21.9339C9.89598 21.9963 9.89278 22.1011 9.95518 22.1667L10.2592 22.4875C10.3216 22.5531 10.4264 22.5563 10.492 22.4939L11.1768 21.8451L11.3576 22.7715C11.3744 22.8603 11.4616 22.9187 11.5504 22.9011L11.984 22.8163C12.0728 22.7995 12.1312 22.7123 12.1136 22.6235L11.9336 21.6987L12.8112 22.0419C12.896 22.0747 12.992 22.0331 13.0248 21.9483L13.1864 21.5371C13.2192 21.4523 13.1768 21.3563 13.0928 21.3235Z" fill="#26A9E0"/>
</svg>
