<svg width="32" height="32" viewBox="0 0 32 32" fill="none" xmlns="http://www.w3.org/2000/svg">
<path fill-rule="evenodd" clip-rule="evenodd" d="M14.4978 18.1899H4.89464C4.72264 18.1899 4.54824 18.2067 4.37944 18.1835C3.87064 18.1123 3.44024 17.9131 3.45384 17.3147C3.46664 16.7163 3.88424 16.5131 4.41624 16.5115C6.32984 16.5043 8.24264 16.5043 10.1562 16.5051C14.8642 16.5059 19.5738 16.5123 24.2818 16.5067C25.781 16.5043 26.857 15.4419 26.8386 14.0235C26.8218 12.6851 25.7418 11.6283 24.3946 11.6323C23.0402 11.6363 21.9626 12.7643 22.0034 14.1395C22.009 14.3107 22.0426 14.4811 22.0546 14.6523C22.0914 15.1747 21.8882 15.5467 21.345 15.6259C20.7994 15.7051 20.4778 15.3947 20.3874 14.8891C20.2242 13.9819 20.297 13.0947 20.7218 12.2531C21.6234 10.4723 23.5466 9.59232 25.4802 10.0859C27.3402 10.5603 28.5818 12.2747 28.5154 14.2755C28.453 16.1795 27.0746 17.7971 25.125 18.0875C24.1146 18.2387 23.0722 18.2011 22.0442 18.2067C19.529 18.2219 17.013 18.2115 14.4978 18.2115V18.1899Z" fill="#FF9933"/>
<path fill-rule="evenodd" clip-rule="evenodd" d="M14.4135 20.2524C16.7335 20.2524 19.0543 20.2532 21.3743 20.2516C22.9311 20.2516 24.2359 21.3516 24.3631 22.8028C24.5223 24.6308 23.5407 25.726 21.9167 26.0436C20.3831 26.3428 18.9783 25.3468 18.6647 23.814C18.5695 23.346 18.7367 23.0036 19.1863 22.8468C19.6343 22.6908 19.9839 22.8596 20.2183 23.2636C20.2719 23.3556 20.2999 23.462 20.3407 23.5604C20.6103 24.206 21.0903 24.478 21.7031 24.3332C22.3663 24.1756 22.7527 23.6644 22.6887 23.0284C22.6271 22.4116 22.1335 21.958 21.4535 21.9532C19.3911 21.9404 17.3287 21.9476 15.2663 21.9476C12.6255 21.9484 9.98392 21.9492 7.34392 21.9492C7.21432 21.9492 7.08472 21.9572 6.95752 21.942C6.45752 21.8836 6.09352 21.6524 6.05592 21.11C6.02472 20.6532 6.43592 20.2836 7.00632 20.2764C8.42232 20.2604 9.83912 20.2692 11.2551 20.2684C12.3079 20.2676 13.3607 20.2676 14.4135 20.2676V20.2524Z" fill="#FF9933"/>
<path fill-rule="evenodd" clip-rule="evenodd" d="M11.3565 14.4719C9.96051 14.4719 8.56451 14.4775 7.16931 14.4687C6.48451 14.4647 6.06131 14.1471 6.05011 13.6647C6.03811 13.1487 6.47811 12.7959 7.18371 12.7943C9.89011 12.7903 12.5965 12.7983 15.3029 12.7943C16.0365 12.7927 16.5581 12.3591 16.6197 11.7351C16.6821 11.1079 16.2813 10.5447 15.6613 10.3887C15.0597 10.2375 14.5133 10.5631 14.2269 11.2839C14.0237 11.7943 13.7061 12.0687 13.1429 11.9015C12.6189 11.7455 12.4453 11.2743 12.6541 10.6359C13.0037 9.56231 14.0725 8.74151 15.2077 8.67351C16.4197 8.60151 17.5669 9.29031 18.0541 10.3847C18.9173 12.3239 17.5533 14.4511 15.4181 14.4743C14.0645 14.4895 12.7101 14.4775 11.3565 14.4775V14.4719Z" fill="#FF9933"/>
</svg>
